<svg xmlns="http://www.w3.org/2000/svg" viewBox="0 0 640 360" role="img" aria-label="Français">
  <defs>
    <linearGradient id="g" x1="0" y1="0" x2="1" y2="1"><stop offset="0" stop-color="#7c3aed"/><stop offset="1" stop-color="#111827"/></linearGradient>
    <filter id="s" x="-20%" y="-20%" width="140%" height="140%"><feDropShadow dx="0" dy="14" stdDeviation="16" flood-color="#111827" flood-opacity=".18"/></filter>
  </defs>
  <rect width="640" height="360" rx="34" fill="url(#g)"/>
  <circle cx="560" cy="58" r="90" fill="rgba(255,255,255,.16)"/>
  <circle cx="80" cy="314" r="120" fill="rgba(255,255,255,.10)"/>
  <g filter="url(#s)">
    <path d="M190 100h125c29 0 52 23 52 52v135H242c-29 0-52-23-52-52V100Z" fill="#fff"/>
    <path d="M367 152c0-29 23-52 52-52h64v187H367V152Z" fill="#f3e8ff"/>
    <path d="M232 150h88M232 190h88M405 150h48M405 190h48" stroke="#7c3aed" stroke-width="12" stroke-linecap="round"/>
    <text x="92" y="236" font-size="88" font-family="Georgia,serif" font-weight="900" fill="#fff">Aa</text></g>
  <text x="38" y="62" font-family="Inter,Arial,sans-serif" font-size="30" font-weight="900" fill="#fff">Français</text>
  <text x="38" y="98" font-family="Inter,Arial,sans-serif" font-size="17" font-weight="700" fill="rgba(255,255,255,.82)">Lecture, grammaire, rédaction</text>
  <rect x="38" y="292" width="150" height="12" rx="6" fill="#fde68a" opacity=".95"/>
</svg>