<svg xmlns="http://www.w3.org/2000/svg" viewBox="0 0 640 360" role="img" aria-label="Économie">
  <defs>
    <linearGradient id="g" x1="0" y1="0" x2="1" y2="1"><stop offset="0" stop-color="#0f766e"/><stop offset="1" stop-color="#1e3a8a"/></linearGradient>
    <filter id="s" x="-20%" y="-20%" width="140%" height="140%"><feDropShadow dx="0" dy="14" stdDeviation="16" flood-color="#111827" flood-opacity=".18"/></filter>
  </defs>
  <rect width="640" height="360" rx="34" fill="url(#g)"/>
  <circle cx="560" cy="58" r="90" fill="rgba(255,255,255,.16)"/>
  <circle cx="80" cy="314" r="120" fill="rgba(255,255,255,.10)"/>
  <g filter="url(#s)">
    <path d="M190 270h270" stroke="#fff" stroke-width="16" stroke-linecap="round"/>
    <rect x="230" y="188" width="44" height="82" rx="12" fill="#d1fae5"/><rect x="306" y="142" width="44" height="128" rx="12" fill="#fff"/><rect x="382" y="102" width="44" height="168" rx="12" fill="#fbbf24"/>
    <path d="M166 168c60 2 91-28 124-76 39 28 79 39 142 21" stroke="#fff" stroke-width="14" stroke-linecap="round" fill="none"/>
    <circle cx="500" cy="218" r="46" fill="#fff"/><text x="474" y="234" font-size="42" font-family="Inter" font-weight="900" fill="#0f766e">F</text></g>
  <text x="38" y="62" font-family="Inter,Arial,sans-serif" font-size="30" font-weight="900" fill="#fff">Économie</text>
  <text x="38" y="98" font-family="Inter,Arial,sans-serif" font-size="17" font-weight="700" fill="rgba(255,255,255,.82)">Graphiques, monnaie, droit</text>
  <rect x="38" y="292" width="150" height="12" rx="6" fill="#fbbf24" opacity=".95"/>
</svg>