<svg xmlns="http://www.w3.org/2000/svg" viewBox="0 0 640 360" role="img" aria-label="Histoire-Géographie">
  <defs>
    <linearGradient id="g" x1="0" y1="0" x2="1" y2="1"><stop offset="0" stop-color="#1d4ed8"/><stop offset="1" stop-color="#0f172a"/></linearGradient>
    <filter id="s" x="-20%" y="-20%" width="140%" height="140%"><feDropShadow dx="0" dy="14" stdDeviation="16" flood-color="#111827" flood-opacity=".18"/></filter>
  </defs>
  <rect width="640" height="360" rx="34" fill="url(#g)"/>
  <circle cx="560" cy="58" r="90" fill="rgba(255,255,255,.16)"/>
  <circle cx="80" cy="314" r="120" fill="rgba(255,255,255,.10)"/>
  <g filter="url(#s)">
    <path d="M240 105 365 78 490 112v170l-125-34-125 34-95-28V84l95 21Z" fill="#fff"/>
    <path d="M240 105v177M365 78v170" stroke="#93c5fd" stroke-width="10"/>
    <path d="M190 205c40-38 80-44 118-14 43 33 86 16 126-22" fill="none" stroke="#1d4ed8" stroke-width="14" stroke-linecap="round"/>
    <circle cx="454" cy="168" r="28" fill="#f59e0b"/>
    <text x="104" y="228" font-size="76" font-family="Georgia,serif" font-weight="900" fill="#fff">1875</text></g>
  <text x="38" y="62" font-family="Inter,Arial,sans-serif" font-size="30" font-weight="900" fill="#fff">Histoire-Géographie</text>
  <text x="38" y="98" font-family="Inter,Arial,sans-serif" font-size="17" font-weight="700" fill="rgba(255,255,255,.82)">Cartes, dates, territoires</text>
  <rect x="38" y="292" width="150" height="12" rx="6" fill="#f59e0b" opacity=".95"/>
</svg>